<svg xmlns="http://www.w3.org/2000/svg" xmlns:xlink="http://www.w3.org/1999/xlink" width="2000" zoomAndPan="magnify" viewBox="0 0 1500 1499.999933" height="2000" preserveAspectRatio="xMidYMid meet" version="1.0"><defs><g/><clipPath id="32cce68ec9"><path d="M 308 771 L 420 771 L 420 897.40625 L 308 897.40625 Z M 308 771 " clip-rule="nonzero"/></clipPath><clipPath id="8424ff738c"><path d="M 239.164062 608.65625 L 473 608.65625 L 473 789 L 239.164062 789 Z M 239.164062 608.65625 " clip-rule="nonzero"/></clipPath><clipPath id="79a49eb95a"><path d="M 496 759 L 566.910156 759 L 566.910156 789 L 496 789 Z M 496 759 " clip-rule="nonzero"/></clipPath><clipPath id="7cbdc9804d"><path d="M 494.679688 759.386719 L 1229 759.386719 L 1229 787.671875 L 494.679688 787.671875 Z M 494.679688 759.386719 " clip-rule="nonzero"/></clipPath><clipPath id="a6e38dfc1a"><path d="M 508.820312 759.386719 L 1214.824219 759.386719 C 1222.632812 759.386719 1228.964844 765.71875 1228.964844 773.53125 C 1228.964844 781.339844 1222.632812 787.671875 1214.824219 787.671875 L 508.820312 787.671875 C 501.011719 787.671875 494.679688 781.339844 494.679688 773.53125 C 494.679688 765.71875 501.011719 759.386719 508.820312 759.386719 Z M 508.820312 759.386719 " clip-rule="nonzero"/></clipPath><clipPath id="d8916f1858"><path d="M 0.679688 0.386719 L 735 0.386719 L 735 28.671875 L 0.679688 28.671875 Z M 0.679688 0.386719 " clip-rule="nonzero"/></clipPath><clipPath id="d9d6f82988"><path d="M 14.820312 0.386719 L 720.824219 0.386719 C 728.632812 0.386719 734.964844 6.71875 734.964844 14.53125 C 734.964844 22.339844 728.632812 28.671875 720.824219 28.671875 L 14.820312 28.671875 C 7.011719 28.671875 0.679688 22.339844 0.679688 14.53125 C 0.679688 6.71875 7.011719 0.386719 14.820312 0.386719 Z M 14.820312 0.386719 " clip-rule="nonzero"/></clipPath><clipPath id="c4b2814dba"><rect x="0" width="735" y="0" height="29"/></clipPath><clipPath id="53004ff3b0"><rect x="0" width="710" y="0" height="169"/></clipPath></defs><g clip-path="url(#32cce68ec9)"><path fill="#51ade5" d="M 390.550781 771.699219 L 390.550781 841.941406 C 390.550781 856.71875 378.570312 868.699219 363.792969 868.699219 C 349.015625 868.699219 337.035156 856.71875 337.035156 841.941406 L 337.035156 799.402344 L 308.480469 799.402344 L 308.480469 841.941406 C 308.480469 872.492188 333.246094 897.253906 363.792969 897.253906 C 394.339844 897.253906 419.101562 872.492188 419.101562 841.941406 L 419.101562 771.699219 L 390.550781 771.699219 " fill-opacity="1" fill-rule="nonzero"/></g><path fill="#a7a5a6" d="M 419.101562 799.402344 L 419.101562 771.699219 L 390.550781 771.699219 L 419.101562 771.699219 L 419.101562 799.402344 " fill-opacity="1" fill-rule="nonzero"/><path fill="#356f95" d="M 390.550781 799.402344 L 419.101562 799.402344 L 419.101562 771.699219 L 390.550781 771.699219 Z M 390.550781 799.402344 " fill-opacity="1" fill-rule="nonzero"/><g clip-path="url(#8424ff738c)"><path fill="#13ac93" d="M 457.90625 759.480469 L 294.867188 759.480469 C 280.160156 759.480469 267.902344 747.785156 267.707031 733.082031 C 267.507812 718.132812 279.566406 705.953125 294.464844 705.953125 L 336.984375 705.953125 L 336.984375 663.992188 C 336.984375 649.214844 348.988281 637.238281 363.769531 637.238281 L 363.761719 637.238281 C 378.539062 637.238281 390.511719 649.214844 390.511719 663.992188 L 390.511719 747.800781 L 419.21875 747.800781 L 419.21875 663.992188 C 419.21875 633.445312 394.457031 608.679688 363.910156 608.679688 L 363.71875 608.679688 C 333.226562 608.679688 308.277344 633.628906 308.277344 664.125 L 308.277344 677.246094 L 294.464844 677.246094 C 263.914062 677.246094 239.152344 702.167969 239.152344 732.71875 C 239.152344 763.265625 263.914062 788.191406 294.464844 788.191406 L 457.90625 788.191406 C 465.832031 788.191406 472.261719 781.761719 472.261719 773.835938 C 472.261719 765.910156 465.832031 759.480469 457.90625 759.480469 " fill-opacity="1" fill-rule="nonzero"/></g><g clip-path="url(#79a49eb95a)"><path fill="#13ac93" d="M 496.105469 773.835938 C 496.105469 781.761719 502.535156 788.1875 510.460938 788.1875 L 552.308594 788.1875 C 560.234375 788.1875 566.664062 781.761719 566.664062 773.835938 C 566.664062 765.90625 560.234375 759.480469 552.308594 759.480469 L 510.460938 759.480469 C 502.535156 759.480469 496.105469 765.90625 496.105469 773.835938 " fill-opacity="1" fill-rule="nonzero"/></g><g clip-path="url(#7cbdc9804d)"><g clip-path="url(#a6e38dfc1a)"><g transform="matrix(1, 0, 0, 1, 494, 759)"><g clip-path="url(#c4b2814dba)"><g clip-path="url(#d8916f1858)"><g clip-path="url(#d9d6f82988)"><path fill="#13ac93" d="M 0.679688 0.386719 L 734.9375 0.386719 L 734.9375 28.671875 L 0.679688 28.671875 Z M 0.679688 0.386719 " fill-opacity="1" fill-rule="nonzero"/></g></g></g></g></g></g><g transform="matrix(1, 0, 0, 1, 494, 600)"><g clip-path="url(#53004ff3b0)"><g fill="#13ac93" fill-opacity="1"><g transform="translate(0.679483, 130.991533)"><g><path d="M 37.046875 -103.359375 L 63.609375 -28.390625 L 90 -103.359375 L 117.96875 -103.359375 L 117.96875 0 L 96.609375 0 L 96.609375 -28.25 L 98.734375 -77.015625 L 70.84375 0 L 56.21875 0 L 28.390625 -76.953125 L 30.515625 -28.25 L 30.515625 0 L 9.234375 0 L 9.234375 -103.359375 Z M 37.046875 -103.359375 "/></g></g></g><g fill="#13ac93" fill-opacity="1"><g transform="translate(128.008846, 130.991533)"><g><path d="M 52.390625 0 C 51.441406 -1.84375 50.753906 -4.140625 50.328125 -6.890625 C 45.359375 -1.347656 38.898438 1.421875 30.953125 1.421875 C 23.421875 1.421875 17.179688 -0.753906 12.234375 -5.109375 C 7.296875 -9.460938 4.828125 -14.953125 4.828125 -21.578125 C 4.828125 -29.710938 7.84375 -35.957031 13.875 -40.3125 C 19.90625 -44.664062 28.625 -46.867188 40.03125 -46.921875 L 49.46875 -46.921875 L 49.46875 -51.328125 C 49.46875 -54.867188 48.554688 -57.703125 46.734375 -59.828125 C 44.921875 -61.960938 42.050781 -63.03125 38.125 -63.03125 C 34.664062 -63.03125 31.953125 -62.203125 29.984375 -60.546875 C 28.023438 -58.890625 27.046875 -56.617188 27.046875 -53.734375 L 6.53125 -53.734375 C 6.53125 -58.179688 7.898438 -62.296875 10.640625 -66.078125 C 13.390625 -69.867188 17.269531 -72.835938 22.28125 -74.984375 C 27.300781 -77.140625 32.9375 -78.21875 39.1875 -78.21875 C 48.644531 -78.21875 56.15625 -75.835938 61.71875 -71.078125 C 67.28125 -66.328125 70.0625 -59.644531 70.0625 -51.03125 L 70.0625 -17.75 C 70.101562 -10.457031 71.117188 -4.941406 73.109375 -1.203125 L 73.109375 0 Z M 35.421875 -14.265625 C 38.453125 -14.265625 41.242188 -14.9375 43.796875 -16.28125 C 46.347656 -17.632812 48.238281 -19.445312 49.46875 -21.71875 L 49.46875 -34.921875 L 41.8125 -34.921875 C 31.539062 -34.921875 26.070312 -31.375 25.40625 -24.28125 L 25.34375 -23.0625 C 25.34375 -20.507812 26.238281 -18.40625 28.03125 -16.75 C 29.832031 -15.09375 32.296875 -14.265625 35.421875 -14.265625 Z M 35.421875 -14.265625 "/></g></g></g><g fill="#13ac93" fill-opacity="1"><g transform="translate(205.939526, 130.991533)"><g><path d="M 32.4375 -95.6875 L 32.4375 -76.796875 L 45.578125 -76.796875 L 45.578125 -61.75 L 32.4375 -61.75 L 32.4375 -23.421875 C 32.4375 -20.585938 32.976562 -18.550781 34.0625 -17.3125 C 35.15625 -16.082031 37.238281 -15.46875 40.3125 -15.46875 C 42.582031 -15.46875 44.597656 -15.632812 46.359375 -15.96875 L 46.359375 -0.421875 C 42.328125 0.804688 38.1875 1.421875 33.9375 1.421875 C 19.539062 1.421875 12.203125 -5.84375 11.921875 -20.375 L 11.921875 -61.75 L 0.703125 -61.75 L 0.703125 -76.796875 L 11.921875 -76.796875 L 11.921875 -95.6875 Z M 32.4375 -95.6875 "/></g></g></g><g fill="#13ac93" fill-opacity="1"><g transform="translate(255.054308, 130.991533)"><g><path d="M 51.03125 -57.5625 C 48.238281 -57.945312 45.78125 -58.140625 43.65625 -58.140625 C 35.894531 -58.140625 30.804688 -55.507812 28.390625 -50.25 L 28.390625 0 L 7.875 0 L 7.875 -76.796875 L 27.265625 -76.796875 L 27.828125 -67.640625 C 31.941406 -74.691406 37.644531 -78.21875 44.9375 -78.21875 C 47.207031 -78.21875 49.335938 -77.910156 51.328125 -77.296875 Z M 51.03125 -57.5625 "/></g></g></g><g fill="#13ac93" fill-opacity="1"><g transform="translate(308.072721, 130.991533)"><g><path d="M 29.53125 0 L 8.9375 0 L 8.9375 -76.796875 L 29.53125 -76.796875 Z M 7.734375 -96.6875 C 7.734375 -99.757812 8.757812 -102.285156 10.8125 -104.265625 C 12.875 -106.253906 15.679688 -107.25 19.234375 -107.25 C 22.734375 -107.25 25.523438 -106.253906 27.609375 -104.265625 C 29.691406 -102.285156 30.734375 -99.757812 30.734375 -96.6875 C 30.734375 -93.5625 29.679688 -91.003906 27.578125 -89.015625 C 25.472656 -87.023438 22.691406 -86.03125 19.234375 -86.03125 C 15.785156 -86.03125 13.003906 -87.023438 10.890625 -89.015625 C 8.785156 -91.003906 7.734375 -93.5625 7.734375 -96.6875 Z M 7.734375 -96.6875 "/></g></g></g><g fill="#13ac93" fill-opacity="1"><g transform="translate(346.61221, 130.991533)"><g><path d="M 37.125 -53.875 L 50.046875 -76.796875 L 71.984375 -76.796875 L 50.109375 -39.1875 L 72.90625 0 L 50.890625 0 L 37.203125 -24.140625 L 23.5625 0 L 1.484375 0 L 24.28125 -39.1875 L 2.484375 -76.796875 L 24.484375 -76.796875 Z M 37.125 -53.875 "/></g></g></g><g fill="#13ac93" fill-opacity="1"><g transform="translate(420.568283, 130.991533)"><g><path d="M 27.109375 -76.796875 L 27.75 -68.21875 C 33.195312 -74.882812 40.554688 -78.21875 49.828125 -78.21875 C 59.722656 -78.21875 66.515625 -74.316406 70.203125 -66.515625 C 75.597656 -74.316406 83.285156 -78.21875 93.265625 -78.21875 C 101.597656 -78.21875 107.796875 -75.789062 111.859375 -70.9375 C 115.929688 -66.09375 117.96875 -58.796875 117.96875 -49.046875 L 117.96875 0 L 97.390625 0 L 97.390625 -48.984375 C 97.390625 -53.335938 96.535156 -56.519531 94.828125 -58.53125 C 93.128906 -60.539062 90.125 -61.546875 85.8125 -61.546875 C 79.664062 -61.546875 75.410156 -58.609375 73.046875 -52.734375 L 73.109375 0 L 52.59375 0 L 52.59375 -48.90625 C 52.59375 -53.351562 51.71875 -56.570312 49.96875 -58.5625 C 48.21875 -60.550781 45.238281 -61.546875 41.03125 -61.546875 C 35.207031 -61.546875 30.992188 -59.128906 28.390625 -54.296875 L 28.390625 0 L 7.875 0 L 7.875 -76.796875 Z M 27.109375 -76.796875 "/></g></g></g><g fill="#13ac93" fill-opacity="1"><g transform="translate(546.407168, 130.991533)"><g><path d="M 43.234375 1.421875 C 31.960938 1.421875 22.789062 -2.03125 15.71875 -8.9375 C 8.644531 -15.851562 5.109375 -25.0625 5.109375 -36.5625 L 5.109375 -38.546875 C 5.109375 -46.253906 6.597656 -53.148438 9.578125 -59.234375 C 12.566406 -65.316406 16.789062 -70 22.25 -73.28125 C 27.71875 -76.570312 33.953125 -78.21875 40.953125 -78.21875 C 51.460938 -78.21875 59.734375 -74.90625 65.765625 -68.28125 C 71.796875 -61.65625 74.8125 -52.265625 74.8125 -40.109375 L 74.8125 -31.734375 L 25.90625 -31.734375 C 26.570312 -26.710938 28.570312 -22.6875 31.90625 -19.65625 C 35.238281 -16.632812 39.460938 -15.125 44.578125 -15.125 C 52.484375 -15.125 58.660156 -17.984375 63.109375 -23.703125 L 73.1875 -12.421875 C 70.113281 -8.066406 65.945312 -4.671875 60.6875 -2.234375 C 55.4375 0.203125 49.617188 1.421875 43.234375 1.421875 Z M 40.890625 -61.609375 C 36.816406 -61.609375 33.515625 -60.234375 30.984375 -57.484375 C 28.453125 -54.742188 26.832031 -50.820312 26.125 -45.71875 L 54.65625 -45.71875 L 54.65625 -47.34375 C 54.5625 -51.882812 53.332031 -55.394531 50.96875 -57.875 C 48.601562 -60.363281 45.242188 -61.609375 40.890625 -61.609375 Z M 40.890625 -61.609375 "/></g></g></g><g fill="#13ac93" fill-opacity="1"><g transform="translate(624.976625, 130.991533)"><g><path d="M 4.6875 -38.96875 C 4.6875 -50.9375 7.367188 -60.46875 12.734375 -67.5625 C 18.109375 -74.664062 25.457031 -78.21875 34.78125 -78.21875 C 42.257812 -78.21875 48.4375 -75.425781 53.3125 -69.84375 L 53.3125 -109.03125 L 73.890625 -109.03125 L 73.890625 0 L 55.375 0 L 54.375 -8.15625 C 49.257812 -1.769531 42.679688 1.421875 34.640625 1.421875 C 25.597656 1.421875 18.34375 -2.140625 12.875 -9.265625 C 7.414062 -16.390625 4.6875 -26.289062 4.6875 -38.96875 Z M 25.203125 -37.484375 C 25.203125 -30.285156 26.453125 -24.769531 28.953125 -20.9375 C 31.460938 -17.101562 35.109375 -15.1875 39.890625 -15.1875 C 46.234375 -15.1875 50.707031 -17.863281 53.3125 -23.21875 L 53.3125 -53.515625 C 50.75 -58.867188 46.320312 -61.546875 40.03125 -61.546875 C 30.144531 -61.546875 25.203125 -53.523438 25.203125 -37.484375 Z M 25.203125 -37.484375 "/></g></g></g></g></g><g fill="#51aee5" fill-opacity="1"><g transform="translate(494.679495, 863.16149)"><g><path d="M 0.828125 0 L 14.734375 -33.828125 L 18.703125 -33.828125 L 32.625 0 L 28.125 0 L 24.9375 -7.6875 L 8.453125 -7.6875 L 5.359375 0 Z M 10.09375 -11.640625 L 23.34375 -11.640625 L 16.71875 -27.890625 Z M 10.09375 -11.640625 "/></g></g></g><g fill="#51aee5" fill-opacity="1"><g transform="translate(533.777281, 863.16149)"><g><path d="M 4.921875 0 L 4.921875 -33.828125 L 8.890625 -33.828125 L 22.1875 -13.78125 L 35.375 -33.828125 L 39.34375 -33.828125 L 39.34375 0 L 35.09375 0 L 35.09375 -25.859375 L 23.875 -8.984375 L 20.390625 -8.984375 L 9.1875 -25.90625 L 9.1875 0 Z M 4.921875 0 "/></g></g></g><g fill="#51aee5" fill-opacity="1"><g transform="translate(583.700548, 863.16149)"><g><path d="M 4.921875 0 L 4.921875 -33.828125 L 25.46875 -33.828125 L 25.46875 -29.859375 L 9.1875 -29.859375 L 9.1875 -19.1875 L 24.265625 -19.1875 L 24.265625 -15.265625 L 9.1875 -15.265625 L 9.1875 -3.96875 L 26 -3.96875 L 26 0 Z M 4.921875 0 "/></g></g></g><g fill="#51aee5" fill-opacity="1"><g transform="translate(618.497142, 863.16149)"><g><path d="M 4.921875 0 L 4.921875 -33.828125 L 17.828125 -33.828125 C 20.179688 -33.828125 22.226562 -33.382812 23.96875 -32.5 C 25.707031 -31.613281 27.0625 -30.363281 28.03125 -28.75 C 29 -27.144531 29.484375 -25.210938 29.484375 -22.953125 C 29.484375 -20.210938 28.773438 -17.945312 27.359375 -16.15625 C 25.941406 -14.375 23.988281 -13.175781 21.5 -12.5625 L 30.015625 0 L 24.890625 0 L 16.625 -12.125 L 9.1875 -12.125 L 9.1875 0 Z M 9.1875 -16.1875 L 17.34375 -16.1875 C 19.832031 -16.1875 21.75 -16.773438 23.09375 -17.953125 C 24.445312 -19.128906 25.125 -20.796875 25.125 -22.953125 C 25.125 -25.109375 24.445312 -26.78125 23.09375 -27.96875 C 21.75 -29.164062 19.832031 -29.765625 17.34375 -29.765625 L 9.1875 -29.765625 Z M 9.1875 -16.1875 "/></g></g></g><g fill="#51aee5" fill-opacity="1"><g transform="translate(657.063327, 863.16149)"><g><path d="M 4.921875 0 L 4.921875 -33.828125 L 9.1875 -33.828125 L 9.1875 0 Z M 4.921875 0 "/></g></g></g><g fill="#51aee5" fill-opacity="1"><g transform="translate(676.829904, 863.16149)"><g><path d="M 19.90625 0.625 C 17.425781 0.625 15.140625 0.191406 13.046875 -0.671875 C 10.953125 -1.546875 9.140625 -2.765625 7.609375 -4.328125 C 6.078125 -5.890625 4.890625 -7.738281 4.046875 -9.875 C 3.210938 -12.019531 2.796875 -14.367188 2.796875 -16.921875 C 2.796875 -19.460938 3.210938 -21.800781 4.046875 -23.9375 C 4.890625 -26.082031 6.078125 -27.9375 7.609375 -29.5 C 9.140625 -31.0625 10.953125 -32.273438 13.046875 -33.140625 C 15.140625 -34.015625 17.425781 -34.453125 19.90625 -34.453125 C 22.582031 -34.453125 25.039062 -33.960938 27.28125 -32.984375 C 29.519531 -32.003906 31.4375 -30.601562 33.03125 -28.78125 C 34.625 -26.957031 35.789062 -24.804688 36.53125 -22.328125 L 32 -22.328125 C 31.125 -24.773438 29.613281 -26.695312 27.46875 -28.09375 C 25.332031 -29.5 22.863281 -30.203125 20.0625 -30.203125 C 17.539062 -30.203125 15.3125 -29.640625 13.375 -28.515625 C 11.445312 -27.390625 9.925781 -25.828125 8.8125 -23.828125 C 7.707031 -21.828125 7.15625 -19.523438 7.15625 -16.921875 C 7.15625 -14.304688 7.707031 -12 8.8125 -10 C 9.925781 -8 11.445312 -6.4375 13.375 -5.3125 C 15.3125 -4.1875 17.539062 -3.625 20.0625 -3.625 C 22.925781 -3.625 25.46875 -4.363281 27.6875 -5.84375 C 29.914062 -7.332031 31.460938 -9.347656 32.328125 -11.890625 L 36.828125 -11.890625 C 36.148438 -9.378906 35 -7.1875 33.375 -5.3125 C 31.75 -3.445312 29.78125 -1.988281 27.46875 -0.9375 C 25.164062 0.101562 22.644531 0.625 19.90625 0.625 Z M 19.90625 0.625 "/></g></g></g><g fill="#51aee5" fill-opacity="1"><g transform="translate(721.920366, 863.16149)"><g><path d="M 0.828125 0 L 14.734375 -33.828125 L 18.703125 -33.828125 L 32.625 0 L 28.125 0 L 24.9375 -7.6875 L 8.453125 -7.6875 L 5.359375 0 Z M 10.09375 -11.640625 L 23.34375 -11.640625 L 16.71875 -27.890625 Z M 10.09375 -11.640625 "/></g></g></g><g fill="#51aee5" fill-opacity="1"><g transform="translate(761.018164, 863.16149)"><g><path d="M 4.921875 0 L 4.921875 -33.828125 L 8.9375 -33.828125 L 27.640625 -7.34375 L 27.640625 -33.828125 L 31.796875 -33.828125 L 31.796875 0 L 27.84375 0 L 9.140625 -26.484375 L 9.140625 0 Z M 4.921875 0 "/></g></g></g><g fill="#51aee5" fill-opacity="1"><g transform="translate(803.402246, 863.16149)"><g/></g></g><g fill="#51aee5" fill-opacity="1"><g transform="translate(821.042397, 863.16149)"><g><path d="M 27.109375 0 L 27.109375 -15.21875 L 9.1875 -15.21875 L 9.1875 0 L 4.921875 0 L 4.921875 -33.828125 L 9.1875 -33.828125 L 9.1875 -19.28125 L 27.109375 -19.28125 L 27.109375 -33.828125 L 31.359375 -33.828125 L 31.359375 0 Z M 27.109375 0 "/></g></g></g><g fill="#51aee5" fill-opacity="1"><g transform="translate(862.991536, 863.16149)"><g><path d="M 4.921875 0 L 4.921875 -33.828125 L 25.46875 -33.828125 L 25.46875 -29.859375 L 9.1875 -29.859375 L 9.1875 -19.1875 L 24.265625 -19.1875 L 24.265625 -15.265625 L 9.1875 -15.265625 L 9.1875 -3.96875 L 26 -3.96875 L 26 0 Z M 4.921875 0 "/></g></g></g><g fill="#51aee5" fill-opacity="1"><g transform="translate(897.788164, 863.16149)"><g><path d="M 0.828125 0 L 14.734375 -33.828125 L 18.703125 -33.828125 L 32.625 0 L 28.125 0 L 24.9375 -7.6875 L 8.453125 -7.6875 L 5.359375 0 Z M 10.09375 -11.640625 L 23.34375 -11.640625 L 16.71875 -27.890625 Z M 10.09375 -11.640625 "/></g></g></g><g fill="#51aee5" fill-opacity="1"><g transform="translate(936.885939, 863.16149)"><g><path d="M 4.921875 0 L 4.921875 -33.828125 L 9.1875 -33.828125 L 9.1875 -4.0625 L 25.609375 -4.0625 L 25.609375 0 Z M 4.921875 0 "/></g></g></g><g fill="#51aee5" fill-opacity="1"><g transform="translate(969.652751, 863.16149)"><g><path d="M 13.09375 0 L 13.09375 -29.765625 L 1.640625 -29.765625 L 1.640625 -33.828125 L 28.75 -33.828125 L 28.75 -29.765625 L 17.34375 -29.765625 L 17.34375 0 Z M 13.09375 0 "/></g></g></g><g fill="#51aee5" fill-opacity="1"><g transform="translate(1005.754189, 863.16149)"><g><path d="M 27.109375 0 L 27.109375 -15.21875 L 9.1875 -15.21875 L 9.1875 0 L 4.921875 0 L 4.921875 -33.828125 L 9.1875 -33.828125 L 9.1875 -19.28125 L 27.109375 -19.28125 L 27.109375 -33.828125 L 31.359375 -33.828125 L 31.359375 0 Z M 27.109375 0 "/></g></g></g><g fill="#51aee5" fill-opacity="1"><g transform="translate(1047.703328, 863.16149)"><g/></g></g><g fill="#51aee5" fill-opacity="1"><g transform="translate(1065.343478, 863.16149)"><g><path d="M 4.921875 0 L 4.921875 -33.828125 L 24.3125 -33.828125 L 24.3125 -29.859375 L 9.1875 -29.859375 L 9.1875 -18.171875 L 23.046875 -18.171875 L 23.046875 -14.25 L 9.1875 -14.25 L 9.1875 0 Z M 4.921875 0 "/></g></g></g><g fill="#51aee5" fill-opacity="1"><g transform="translate(1097.965317, 863.16149)"><g><path d="M 4.921875 0 L 4.921875 -33.828125 L 9.1875 -33.828125 L 9.1875 0 Z M 4.921875 0 "/></g></g></g><g fill="#51aee5" fill-opacity="1"><g transform="translate(1117.731872, 863.16149)"><g><path d="M 4.921875 0 L 4.921875 -33.828125 L 17.828125 -33.828125 C 20.179688 -33.828125 22.226562 -33.382812 23.96875 -32.5 C 25.707031 -31.613281 27.0625 -30.363281 28.03125 -28.75 C 29 -27.144531 29.484375 -25.210938 29.484375 -22.953125 C 29.484375 -20.210938 28.773438 -17.945312 27.359375 -16.15625 C 25.941406 -14.375 23.988281 -13.175781 21.5 -12.5625 L 30.015625 0 L 24.890625 0 L 16.625 -12.125 L 9.1875 -12.125 L 9.1875 0 Z M 9.1875 -16.1875 L 17.34375 -16.1875 C 19.832031 -16.1875 21.75 -16.773438 23.09375 -17.953125 C 24.445312 -19.128906 25.125 -20.796875 25.125 -22.953125 C 25.125 -25.109375 24.445312 -26.78125 23.09375 -27.96875 C 21.75 -29.164062 19.832031 -29.765625 17.34375 -29.765625 L 9.1875 -29.765625 Z M 9.1875 -16.1875 "/></g></g></g><g fill="#51aee5" fill-opacity="1"><g transform="translate(1156.298092, 863.16149)"><g><path d="M 16.1875 0.625 C 13.476562 0.625 11.132812 0.164062 9.15625 -0.75 C 7.175781 -1.664062 5.644531 -2.953125 4.5625 -4.609375 C 3.488281 -6.273438 2.9375 -8.203125 2.90625 -10.390625 L 7.15625 -10.390625 C 7.21875 -8.234375 8.078125 -6.535156 9.734375 -5.296875 C 11.398438 -4.054688 13.550781 -3.4375 16.1875 -3.4375 C 18.570312 -3.4375 20.460938 -3.898438 21.859375 -4.828125 C 23.265625 -5.765625 23.96875 -7.070312 23.96875 -8.75 C 23.96875 -10.320312 23.289062 -11.582031 21.9375 -12.53125 C 20.582031 -13.488281 18.375 -14.320312 15.3125 -15.03125 C 11.15625 -16.03125 8.109375 -17.3125 6.171875 -18.875 C 4.242188 -20.4375 3.28125 -22.519531 3.28125 -25.125 C 3.28125 -28 4.367188 -30.269531 6.546875 -31.9375 C 8.722656 -33.613281 11.664062 -34.453125 15.375 -34.453125 C 19.175781 -34.453125 22.175781 -33.5 24.375 -31.59375 C 26.582031 -29.695312 27.703125 -27.109375 27.734375 -23.828125 L 23.53125 -23.828125 C 23.5 -25.859375 22.75 -27.457031 21.28125 -28.625 C 19.820312 -29.800781 17.851562 -30.390625 15.375 -30.390625 C 12.957031 -30.390625 11.0625 -29.914062 9.6875 -28.96875 C 8.320312 -28.019531 7.640625 -26.738281 7.640625 -25.125 C 7.640625 -23.738281 8.273438 -22.570312 9.546875 -21.625 C 10.816406 -20.675781 13.097656 -19.800781 16.390625 -19 C 20.703125 -17.925781 23.773438 -16.59375 25.609375 -15 C 27.453125 -13.40625 28.375 -11.367188 28.375 -8.890625 C 28.375 -5.960938 27.269531 -3.644531 25.0625 -1.9375 C 22.851562 -0.226562 19.894531 0.625 16.1875 0.625 Z M 16.1875 0.625 "/></g></g></g><g fill="#51aee5" fill-opacity="1"><g transform="translate(1193.221123, 863.16149)"><g><path d="M 13.09375 0 L 13.09375 -29.765625 L 1.640625 -29.765625 L 1.640625 -33.828125 L 28.75 -33.828125 L 28.75 -29.765625 L 17.34375 -29.765625 L 17.34375 0 Z M 13.09375 0 "/></g></g></g></svg>