<svg id="Layer_1" data-name="Layer 1" xmlns="http://www.w3.org/2000/svg" xmlns:xlink="http://www.w3.org/1999/xlink" viewBox="0 0 1357.71 416.57"><defs><style>.cls-1{fill:none;}.cls-2{clip-path:url(#clip-path);}.cls-3{fill:#51ade5;}.cls-4{fill:#a7a5a6;}.cls-5{fill:#356f95;}.cls-6{clip-path:url(#clip-path-2);}.cls-7{fill:#13ac93;}.cls-8{clip-path:url(#clip-path-3);}.cls-9{clip-path:url(#clip-path-4);}.cls-10{clip-path:url(#clip-path-5);}.cls-11{clip-path:url(#clip-path-8);}.cls-12{fill:#51aee5;}</style><clipPath id="clip-path"><rect class="cls-1" x="112.1" y="228" width="149.33" height="168.54"/></clipPath><clipPath id="clip-path-2"><rect class="cls-1" x="20.31" y="11.54" width="311.78" height="240.46"/></clipPath><clipPath id="clip-path-3"><rect class="cls-1" x="354.25" y="212.52" width="979.09" height="37.71"/></clipPath><clipPath id="clip-path-4"><path class="cls-1" d="M373.1,212.52h941.34a18.86,18.86,0,1,1,0,37.71H373.1a18.86,18.86,0,0,1,0-37.71Z"/></clipPath><clipPath id="clip-path-5"><rect class="cls-1" x="353.34" y="212" width="980" height="38.67"/></clipPath><clipPath id="clip-path-8"><rect class="cls-1" x="370.46" width="946.67" height="225.33"/></clipPath></defs><title>Matrixmed support logo wide</title><g class="cls-2"><path class="cls-3" d="M222.16,228.93v93.66a35.68,35.68,0,1,1-71.35,0V265.87H112.74v56.72a73.75,73.75,0,1,0,147.49,0V228.93H222.16"/></g><path class="cls-4" d="M260.23,265.87V228.93h0v36.94"/><path class="cls-5" d="M222.16,265.87h38.07V228.93H222.16Z"/><g class="cls-6"><path class="cls-7" d="M312,212.64H94.58c-19.6,0-35.95-15.59-36.21-35.2a35.69,35.69,0,0,1,35.68-36.17h56.69v-56a35.7,35.7,0,0,1,35.71-35.67h0a35.66,35.66,0,0,1,35.67,35.67V197.07h38.28V85.32a73.75,73.75,0,0,0-73.75-73.75h-.25A74.14,74.14,0,0,0,112.47,85.5V103H94.05a74,74,0,0,0,0,147.93H312a19.14,19.14,0,0,0,0-38.28"/></g><g class="cls-8"><g class="cls-9"><g class="cls-10"><g class="cls-8"><g class="cls-9"><path class="cls-7" d="M354.25,212.52h979v37.71h-979Z"/></g></g></g></g></g><g class="cls-11"><path class="cls-7" d="M420.77,36.84l35.41,100,35.19-100h37.29V174.66H500.18V137L503,72,465.83,174.66h-19.5L409.22,72.05,412.06,137v37.67H383.68V36.84Z"/><path class="cls-7" d="M611,174.66a30,30,0,0,1-2.75-9.19q-9.94,11.09-25.84,11.08-15.06,0-25-8.71a28,28,0,0,1-9.87-22q0-16.26,12.06-25t34.88-8.82H607.1v-5.87q0-7.08-3.65-11.34T592,90.61c-4.62,0-8.23,1.11-10.86,3.32A11.26,11.26,0,0,0,577.2,103H549.85a27.42,27.42,0,0,1,5.48-16.46,36.28,36.28,0,0,1,15.52-11.87,56.49,56.49,0,0,1,22.54-4.32q18.92,0,30,9.52t11.13,26.73V151q.08,14.58,4.06,22.06v1.61Zm-22.63-19A23.65,23.65,0,0,0,599.54,153a17.8,17.8,0,0,0,7.56-7.25V128.09H596.89q-20.55,0-21.87,14.19l-.09,1.63a11,11,0,0,0,3.59,8.41Q582.12,155.64,588.37,155.63Z"/><path class="cls-7" d="M688.3,47.07V72.26h17.52V92.32H688.3v51.11q0,5.67,2.17,8.14T698.8,154a43.14,43.14,0,0,0,8.06-.67v20.73a56.38,56.38,0,0,1-16.56,2.46q-28.8,0-29.35-29.06V92.32H646V72.26h15V47.07Z"/><path class="cls-7" d="M778.58,97.91a72.21,72.21,0,0,0-9.84-.78q-15.51,0-20.35,10.53v67H721V72.26h25.85l.75,12.21q8.22-14.1,22.81-14.11A29,29,0,0,1,779,71.59Z"/><path class="cls-7" d="M820.6,174.66H793.14V72.26H820.6ZM791.54,45.74a13.44,13.44,0,0,1,4.1-10.11q4.13-4,11.23-4t11.17,4a13.35,13.35,0,0,1,4.17,10.11A13.47,13.47,0,0,1,818,56q-4.21,4-11.13,4t-11.12-4A13.43,13.43,0,0,1,791.54,45.74Z"/><path class="cls-7" d="M882.11,102.82l17.23-30.56h29.25l-29.16,50.15,30.39,52.25H900.47l-18.25-32.19L864,174.66H834.59L865,122.41,835.93,72.26h29.33Z"/><path class="cls-7" d="M967.37,72.26l.85,11.44q10.89-13.33,29.44-13.34,19.79,0,27.17,15.61,10.79-15.6,30.75-15.61,16.67,0,24.79,9.71t8.14,29.19v65.4h-27.43V109.34q0-8.7-3.42-12.73c-2.27-2.67-6.27-4-12-4q-12.3,0-17,11.75l.08,70.32h-27.35V109.45q0-8.9-3.5-12.88t-11.92-4q-11.65,0-16.85,9.67v72.4H941.72V72.26Z"/><path class="cls-7" d="M1156.65,176.55q-22.55,0-36.68-13.81t-14.15-36.83v-2.65a61.78,61.78,0,0,1,6-27.58A43.71,43.71,0,0,1,1128.67,77a47.44,47.44,0,0,1,24.94-6.59q21,0,33.08,13.25t12.07,37.57v11.16h-65.21q1.32,10,8,16.11t16.89,6q15.82,0,24.71-11.44l13.44,15a41,41,0,0,1-16.67,13.59A54.6,54.6,0,0,1,1156.65,176.55Zm-3.12-84a17.1,17.1,0,0,0-13.21,5.5q-5.07,5.49-6.48,15.69h38v-2.17q-.18-9.07-4.91-14T1153.53,92.51Z"/><path class="cls-7" d="M1210,122.7q0-23.94,10.73-38.13t29.39-14.21a31.4,31.4,0,0,1,24.71,11.17V29.28h27.44V174.66H1277.6l-1.33-10.88Q1266,176.56,1250,176.55q-18.08,0-29-14.25T1210,122.7Zm27.35,2q0,14.4,5,22.06t14.58,7.67q12.69,0,17.9-10.71V103.3q-5.13-10.69-17.71-10.71Q1237.37,92.59,1237.37,124.68Z"/></g><path class="cls-12" d="M359.49,350.88,378,305.78h5.29l18.56,45.1h-6l-4.25-10.25h-22l-4.12,10.25Zm12.35-15.52h17.67l-8.83-21.67Z"/><path class="cls-12" d="M417.08,350.88v-45.1h5.29l17.73,26.73,17.58-26.73H463v45.1h-5.66V316.4l-15,22.5H437.7l-14.94-22.56v34.54Z"/><path class="cls-12" d="M483.64,350.88v-45.1H511v5.29H489.33V325.3h20.1v5.23h-20.1v15.06h22.42v5.29Z"/><path class="cls-12" d="M530,350.88v-45.1h17.21a17.83,17.83,0,0,1,8.18,1.77,13.11,13.11,0,0,1,5.42,5,14.71,14.71,0,0,1,1.94,7.73,14.16,14.16,0,0,1-2.84,9.06,13.84,13.84,0,0,1-7.81,4.79l11.36,16.75h-6.84l-11-16.16h-9.92v16.16Zm5.68-21.58H546.6c3.32,0,5.87-.78,7.67-2.36a9.6,9.6,0,0,0,0-13.35c-1.8-1.59-4.35-2.4-7.67-2.4H535.72Z"/><path class="cls-12" d="M581.46,350.88v-45.1h5.69v45.1Z"/><path class="cls-12" d="M627.79,351.72a23.77,23.77,0,0,1-9.14-1.73,21.67,21.67,0,0,1-12-12.27,25.55,25.55,0,0,1-1.67-9.4,25.28,25.28,0,0,1,1.67-9.35,21.5,21.5,0,0,1,12-12.28,23.59,23.59,0,0,1,9.14-1.75,24.42,24.42,0,0,1,9.84,2,21.55,21.55,0,0,1,7.66,5.61,22.79,22.79,0,0,1,4.67,8.6h-6a15,15,0,0,0-6-7.69,18.79,18.79,0,0,0-18.8-.56,16.24,16.24,0,0,0-6.08,6.25,20.34,20.34,0,0,0,0,18.44,16.24,16.24,0,0,0,6.08,6.25,17.46,17.46,0,0,0,8.92,2.25,17.94,17.94,0,0,0,10.17-3,15.44,15.44,0,0,0,6.19-8.06h6a21.94,21.94,0,0,1-4.61,8.77,22.82,22.82,0,0,1-7.87,5.83A24.23,24.23,0,0,1,627.79,351.72Z"/><path class="cls-12" d="M662.48,350.88,681,305.78h5.29l18.56,45.1h-6l-4.25-10.25h-22l-4.12,10.25Zm12.35-15.52H692.5l-8.84-21.67Z"/><path class="cls-12" d="M720.06,350.88v-45.1h5.36l24.94,35.31V305.78h5.54v45.1h-5.27l-24.94-35.31v35.31Z"/><path class="cls-12" d="M829.68,350.88V330.59h-23.9v20.29H800.1v-45.1h5.68v19.39h23.9V305.78h5.67v45.1Z"/><path class="cls-12" d="M856,350.88v-45.1h27.4v5.29H861.72V325.3h20.1v5.23h-20.1v15.06h22.41v5.29Z"/><path class="cls-12" d="M897,350.88l18.54-45.1h5.29l18.56,45.1h-6l-4.25-10.25h-22L903,350.88Zm12.35-15.52H927l-8.84-21.67Z"/><path class="cls-12" d="M954.56,350.88v-45.1h5.68v39.69h21.9v5.41Z"/><path class="cls-12" d="M1009.14,350.88V311.19H993.87v-5.41H1030v5.41h-15.21v39.69Z"/><path class="cls-12" d="M1076,350.88V330.59h-23.89v20.29h-5.69v-45.1h5.69v19.39H1076V305.78h5.67v45.1Z"/><path class="cls-12" d="M1125.83,350.88v-45.1h25.86v5.29h-20.17v15.58H1150v5.23h-18.48v19Z"/><path class="cls-12" d="M1169.33,350.88v-45.1H1175v45.1Z"/><path class="cls-12" d="M1195.68,350.88v-45.1h17.21a17.85,17.85,0,0,1,8.19,1.77,13.17,13.17,0,0,1,5.42,5,14.71,14.71,0,0,1,1.93,7.73,14.15,14.15,0,0,1-2.83,9.06,13.88,13.88,0,0,1-7.81,4.79l11.35,16.75h-6.83l-11-16.16h-9.92v16.16Zm5.69-21.58h10.88c3.31,0,5.87-.78,7.66-2.36a9.58,9.58,0,0,0,0-13.35c-1.79-1.59-4.35-2.4-7.66-2.4h-10.88Z"/><path class="cls-12" d="M1262.13,351.72a22.17,22.17,0,0,1-9.38-1.84,13.7,13.7,0,0,1-8.33-12.85h5.66a8.36,8.36,0,0,0,3.44,6.79,14,14,0,0,0,8.61,2.48,13.51,13.51,0,0,0,7.56-1.86,6.16,6.16,0,0,0,.1-10.27q-2.71-1.91-8.83-3.33-8.31-2-12.19-5.12a10.19,10.19,0,0,1-3.85-8.34,10.82,10.82,0,0,1,4.35-9.08q4.35-3.36,11.77-3.36,7.61,0,12,3.82a13.12,13.12,0,0,1,4.48,10.35h-5.6a7.86,7.86,0,0,0-3-6.39,12.21,12.21,0,0,0-7.88-2.36,13.21,13.21,0,0,0-7.58,1.9,5.92,5.92,0,0,0-2.73,5.12,5.63,5.63,0,0,0,2.54,4.67q2.54,1.89,9.13,3.5,8.63,2.15,12.29,5.33a10.31,10.31,0,0,1,3.69,8.15,11.12,11.12,0,0,1-4.42,9.27Q1269.53,351.72,1262.13,351.72Z"/><path class="cls-12" d="M1307.23,350.88V311.19H1292v-5.41h36.15v5.41H1312.9v39.69Z"/></svg>